<?xml version="1.0" encoding="iso-8859-1"?>
<!-- Generator: Adobe Illustrator 19.0.0, SVG Export Plug-In . SVG Version: 6.00 Build 0)  -->
<svg version="1.1" id="Layer_1" xmlns="http://www.w3.org/2000/svg" xmlns:xlink="http://www.w3.org/1999/xlink" x="0px" y="0px"
	 viewBox="0 0 512 512" style="enable-background:new 0 0 512 512;" xml:space="preserve">
<path style="fill:#34B6D0;" d="M241.429,270.572c-12.697-12.696-23.348-26.865-31.864-42.049l-23.79,23.787l-25.346,25.347
	l-10.819,10.821L21.199,416.886c-17.495,17.494-17.494,45.861,0,63.358l10.559,10.557c17.494,17.493,45.862,17.494,63.357,0.001
	l127.074-127.073l18.366-18.365l19.138-19.138l23.788-23.79C268.293,293.921,254.126,283.268,241.429,270.572z M62.715,469.957
	c-11.416-0.001-20.672-9.257-20.672-20.672c0-11.418,9.255-20.674,20.672-20.673c11.416-0.001,20.672,9.255,20.672,20.671
	C83.385,460.7,74.132,469.956,62.715,469.957z"/>
<g style="opacity:0.2;">
	<path style="fill:#020202;" d="M36.566,437.412l128.411-128.41l10.819-10.821l25.346-25.347l22.606-22.603
		c-5.241-6.953-9.975-14.206-14.184-21.71l-23.79,23.787l-25.346,25.347l-10.819,10.821l-128.41,128.41
		c-17.495,17.494-17.494,45.861,0,63.358l5.418,5.418C20.211,469.541,23.522,450.455,36.566,437.412z"/>
</g>
<path style="fill:#636D77;" d="M241.429,270.572c-46.564-46.562-65.865-112.798-51.635-177.178
	c1.975-8.931,10.815-14.571,19.746-12.597c8.93,1.977,14.571,10.815,12.597,19.746c-11.778,53.276,4.191,108.084,42.712,146.607
	c38.525,38.522,93.332,54.491,146.609,42.714c8.932-1.977,17.775,3.666,19.747,12.597c1.974,8.932-3.667,17.771-12.598,19.746
	C354.227,336.437,287.991,317.134,241.429,270.572z"/>
<path style="fill:#D6E0E0;" d="M466.744,45.256c-49.537-49.537-129.855-49.537-179.393,0
	c-49.536,49.536-49.537,129.854-0.001,179.394c49.537,49.537,129.855,49.537,179.395,0
	C516.283,175.112,516.283,94.793,466.744,45.256z M395.784,153.69c-10.347,10.35-27.125,10.35-37.474,0
	c-10.35-10.348-10.35-27.126,0-37.474c10.348-10.348,27.126-10.348,37.474,0C406.133,126.564,406.133,143.341,395.784,153.69z"/>
<g style="opacity:0.2;">
	<path style="fill:#020202;" d="M312.77,224.65c-49.537-49.538-49.536-129.857,0.001-179.394
		c21.532-21.532,48.879-33.699,76.986-36.513c-36.558-3.66-74.401,8.508-102.406,36.513
		c-49.536,49.536-49.537,129.854-0.001,179.394c28.006,28.005,65.848,40.173,102.406,36.513
		C361.65,258.349,334.302,246.181,312.77,224.65z"/>
</g>
<g>
	<path style="fill:#020202;" d="M377.047,269.905c36.047,0,69.937-14.038,95.428-39.526C497.963,204.889,512,171,512,134.952
		c0-36.048-14.038-69.937-39.527-95.426C446.985,14.039,413.095,0,377.048,0s-69.937,14.038-95.426,39.526
		c-50.692,50.693-52.539,132.011-5.554,184.946l-11.056,11.055c-32.494-36.132-45.554-85.33-34.964-133.236
		c2.935-13.275-5.478-26.467-18.759-29.408c-1.756-0.388-3.552-0.586-5.34-0.586c-11.466,0-21.587,8.136-24.066,19.344
		c-10.33,46.733-3.687,94.394,17.681,135.421L15.47,411.156c-20.627,20.626-20.628,54.187,0,74.817l10.558,10.558
		c10.314,10.314,23.859,15.47,37.407,15.469c13.545-0.001,27.095-5.157,37.407-15.468l127.074-127.073
		c3.164-3.165,3.164-8.295,0-11.459c-3.164-3.163-8.294-3.163-11.459,0L89.385,485.072c-14.307,14.308-37.588,14.307-51.899-0.001
		l-10.557-10.556c-14.308-14.31-14.309-37.592,0-51.899l180.994-180.994c1.905,3.008,3.91,5.961,5.983,8.876
		c0.105,0.147,0.206,0.296,0.311,0.443c0.856,1.196,1.731,2.38,2.613,3.56c0.324,0.433,0.647,0.867,0.974,1.299
		c0.775,1.018,1.561,2.027,2.357,3.03c0.472,0.597,0.949,1.191,1.428,1.783c0.712,0.878,1.428,1.752,2.156,2.62
		c0.613,0.731,1.235,1.454,1.858,2.177c0.643,0.744,1.282,1.489,1.937,2.225c0.797,0.897,1.61,1.78,2.423,2.663
		c0.521,0.565,1.034,1.137,1.562,1.697c1.37,1.453,2.758,2.891,4.171,4.305c1.272,1.272,2.559,2.52,3.858,3.753
		c0.258,0.245,0.523,0.484,0.782,0.727c1.088,1.022,2.183,2.033,3.29,3.028c0.188,0.169,0.378,0.334,0.567,0.501
		c1.246,1.112,2.503,2.206,3.771,3.283c0.025,0.022,0.05,0.042,0.075,0.063c7.103,6.027,14.552,11.524,22.31,16.448l-35.529,35.53
		c-3.164,3.165-3.164,8.295,0,11.459c3.165,3.163,8.295,3.163,11.459,0l38.611-38.615c28.07,14.647,59.38,22.421,91.843,22.421
		c14.589,0,29.264-1.609,43.619-4.782c13.279-2.936,21.695-16.128,18.76-29.407c-2.476-11.209-12.598-19.345-24.065-19.345
		c-1.789,0-3.587,0.198-5.342,0.586c-10.835,2.395-21.906,3.609-32.909,3.609c-37.333,0-72.656-13.639-100.338-38.566l11.063-11.063
		C312.232,257.894,343.714,269.905,377.047,269.905z M293.081,50.986c22.427-22.429,52.248-34.781,83.966-34.781
		s61.539,12.352,83.967,34.78s34.78,52.247,34.78,83.967c0,31.718-12.352,61.539-34.779,83.967
		c-22.43,22.429-52.25,34.78-83.97,34.78c-29.003,0-56.414-10.333-78.042-29.247l59.981-59.981
		c5.382,3.307,11.584,5.081,18.061,5.081c9.243,0,17.932-3.6,24.465-10.135c6.537-6.536,10.136-15.225,10.136-24.466
		c0-9.243-3.599-17.932-10.135-24.467c-6.535-6.536-15.224-10.136-24.466-10.136c-9.242,0-17.931,3.6-24.465,10.135
		c-6.537,6.536-10.136,15.225-10.136,24.467c0,6.477,1.774,12.679,5.081,18.061l-59.978,59.977
		C246.869,166.397,248.707,95.358,293.081,50.986z M358.651,134.952c0-4.914,1.913-9.534,5.389-13.008
		c3.474-3.475,8.094-5.389,13.007-5.389c4.914,0,9.533,1.913,13.008,5.389c3.475,3.474,5.388,8.094,5.388,13.008
		c0,4.913-1.913,9.533-5.389,13.008c-3.474,3.475-8.093,5.388-13.007,5.388c-4.91,0-9.527-1.911-13.003-5.383
		c-0.001-0.002-0.003-0.003-0.004-0.005c-0.002-0.002-0.004-0.003-0.005-0.005C360.562,144.481,358.651,139.864,358.651,134.952z
		 M413.21,297.775c0.608-0.135,1.229-0.203,1.842-0.203c3.927,0,7.394,2.79,8.243,6.638c1.007,4.555-1.88,9.079-6.434,10.087
		c-13.209,2.919-26.708,4.399-40.122,4.399c-31.463,0-61.754-7.951-88.613-22.888c-0.22-0.154-0.445-0.304-0.683-0.438
		c-11.043-6.194-21.42-13.513-30.972-21.836c-0.039-0.034-0.077-0.068-0.115-0.102c-1.388-1.212-2.754-2.451-4.106-3.706
		c-0.306-0.284-0.613-0.566-0.917-0.852c-1.41-1.324-2.805-2.664-4.174-4.034c-1.455-1.455-2.882-2.935-4.286-4.435
		c-0.351-0.375-0.688-0.761-1.036-1.139c-1.053-1.145-2.102-2.295-3.126-3.466c-0.354-0.405-0.696-0.818-1.047-1.225
		c-1.006-1.171-2.006-2.346-2.983-3.542c-0.314-0.385-0.62-0.776-0.931-1.162c-0.999-1.243-1.989-2.496-2.956-3.765
		c-0.266-0.349-0.525-0.7-0.789-1.05c-1-1.332-1.985-2.674-2.948-4.032c-0.216-0.305-0.43-0.61-0.644-0.916
		c-1-1.428-1.981-2.869-2.941-4.326c-0.166-0.252-0.332-0.503-0.497-0.756c-1.001-1.537-1.981-3.09-2.937-4.656
		c-0.112-0.185-0.228-0.369-0.34-0.555c-1.014-1.677-2.003-3.368-2.964-5.078c-21.829-38.83-28.958-84.678-19.03-129.595
		c0.85-3.846,4.318-6.638,8.244-6.638c0.613,0,1.233,0.068,1.84,0.203c4.556,1.01,7.443,5.533,6.437,10.087
		c-12.376,55.984,4.4,113.577,44.878,154.069c0.005,0.005,0.01,0.012,0.015,0.017c0.004,0.004,0.01,0.009,0.015,0.014
		c31.525,31.516,73.312,48.873,117.666,48.873C388.977,301.766,401.225,300.423,413.21,297.775z"/>
	<path style="fill:#020202;" d="M97.424,422.622c2.073,0,4.147-0.791,5.73-2.372l127.442-127.443c3.164-3.165,3.164-8.295,0-11.459
		c-3.165-3.163-8.295-3.163-11.459,0L91.695,408.79c-3.164,3.165-3.164,8.295,0,11.459C93.277,421.83,95.351,422.622,97.424,422.622
		z"/>
	<path style="fill:#020202;" d="M62.716,420.509c-0.001,0-0.002,0-0.003,0c-7.684,0-14.911,2.994-20.345,8.428
		c-5.434,5.435-8.428,12.661-8.428,20.348c0,15.866,12.908,28.773,28.773,28.775c0.001,0,0.001,0,0.002,0
		c15.862-0.001,28.77-12.91,28.773-28.777c0-7.685-2.994-14.911-8.429-20.346C77.627,423.502,70.401,420.509,62.716,420.509z
		 M62.715,461.854c-6.93-0.001-12.57-5.64-12.57-12.57c0-3.358,1.307-6.514,3.682-8.89c2.373-2.373,5.529-3.681,8.888-3.681h0.001
		c3.355,0,6.512,1.307,8.887,3.681c2.375,2.375,3.682,5.53,3.682,8.887C75.284,456.213,69.645,461.853,62.715,461.854z"/>
</g>
<g>
</g>
<g>
</g>
<g>
</g>
<g>
</g>
<g>
</g>
<g>
</g>
<g>
</g>
<g>
</g>
<g>
</g>
<g>
</g>
<g>
</g>
<g>
</g>
<g>
</g>
<g>
</g>
<g>
</g>
</svg>
